<svg width="50" height="39" viewBox="0 0 50 39" fill="none" xmlns="http://www.w3.org/2000/svg">
<path d="M42.7083 14.625H39.5833V11.375C39.5833 5.10275 33.0414 0 25 0C16.9586 0 10.4167 5.10275 10.4167 11.375V14.625H7.2917C6.71592 14.625 6.25 14.9884 6.25 15.4375V35.7501C6.25 37.5425 8.11865 39 10.4167 39H39.5834C41.8813 39 43.75 37.5424 43.75 35.75V15.4375C43.75 14.9884 43.2841 14.625 42.7083 14.625ZM28.1189 31.5978C28.1515 31.8271 28.0569 32.0572 27.8596 32.2295C27.6622 32.4016 27.3794 32.5 27.0834 32.5H22.9167C22.6207 32.5 22.3379 32.4016 22.1405 32.2295C21.9432 32.0573 21.8485 31.8272 21.8812 31.5978L22.5383 26.9887C21.4712 26.3833 20.8334 25.4256 20.8334 24.375C20.8334 22.5826 22.7021 21.125 25.0001 21.125C27.2981 21.125 29.1668 22.5825 29.1668 24.375C29.1668 25.4256 28.529 26.3833 27.4619 26.9887L28.1189 31.5978ZM33.3333 14.625H16.6667V11.375C16.6667 7.79094 20.4051 4.875 25 4.875C29.5949 4.875 33.3333 7.79094 33.3333 11.375V14.625Z" fill="#13C6FF"/>
</svg>
