<svg width="47" height="47" viewBox="0 0 47 47" fill="none" xmlns="http://www.w3.org/2000/svg">
<g clip-path="url(#clip0)">
<path d="M24.0689 23.5439C27.1793 23.5439 29.8726 22.4283 32.0732 20.2274C34.2738 18.0268 35.3893 15.3342 35.3893 12.2235C35.3893 9.11389 34.2738 6.42095 32.0728 4.21963C29.8718 2.01938 27.1789 0.903839 24.0689 0.903839C20.9582 0.903839 18.2656 2.01938 16.065 4.21999C13.8644 6.42059 12.7485 9.11353 12.7485 12.2235C12.7485 15.3342 13.8644 18.0271 16.0654 20.2277C18.2664 22.428 20.9593 23.5439 24.0689 23.5439Z" fill="#13C6FF"/>
<path d="M43.8766 37.0444C43.8131 36.1286 43.6848 35.1296 43.4958 34.0747C43.305 33.0118 43.0594 32.0071 42.7654 31.0888C42.4616 30.1396 42.0486 29.2023 41.5379 28.304C41.008 27.3717 40.3855 26.5599 39.6869 25.8919C38.9565 25.193 38.0622 24.6311 37.0281 24.2212C35.9975 23.8135 34.8554 23.607 33.6337 23.607C33.1539 23.607 32.6899 23.8038 31.7938 24.3873C31.2423 24.7469 30.5973 25.1629 29.8772 25.6229C29.2615 26.0152 28.4275 26.3828 27.3973 26.7155C26.3922 27.0407 25.3717 27.2057 24.3644 27.2057C23.3571 27.2057 22.337 27.0407 21.3308 26.7155C20.3017 26.3831 19.4676 26.0156 18.8526 25.6233C18.1394 25.1675 17.494 24.7516 16.9342 24.3869C16.0392 23.8035 15.5748 23.6066 15.0951 23.6066C13.873 23.6066 12.7313 23.8135 11.7011 24.2216C10.6677 24.6307 9.77299 25.1926 9.04185 25.8922C8.34369 26.5606 7.72083 27.3721 7.19157 28.304C6.6813 29.2023 6.26822 30.1392 5.96414 31.0891C5.67046 32.0074 5.42484 33.0118 5.23407 34.0747C5.0451 35.1282 4.91673 36.1275 4.85326 37.0455C4.79086 37.9448 4.75931 38.8782 4.75931 39.8209C4.75931 42.2743 5.53922 44.2605 7.07718 45.7253C8.59613 47.1707 10.606 47.904 13.0501 47.904H35.6809C38.125 47.904 40.1341 47.1711 41.6534 45.7253C43.1917 44.2616 43.9716 42.275 43.9716 39.8205C43.9713 38.8735 43.9394 37.9394 43.8766 37.0444Z" fill="#13C6FF"/>
</g>
<defs>
<clipPath id="clip0">
<rect width="47" height="47" fill="white"/>
</clipPath>
</defs>
</svg>
